<?xml version="1.0" encoding="utf-8"?>
<!-- Generator: Adobe Illustrator 24.0.0, SVG Export Plug-In . SVG Version: 6.00 Build 0)  -->
<svg version="1.1" id="Layer_1" xmlns="http://www.w3.org/2000/svg" xmlns:xlink="http://www.w3.org/1999/xlink" x="0px" y="0px"
	 viewBox="0 0 2000 2000" style="enable-background:new 0 0 2000 2000;" xml:space="preserve">
<style type="text/css">
	.st0{fill:url(#SVGID_1_);}
	.st1{fill:#FFD00D;}
	.st2{fill:#262626;}
	.st3{fill:#1F1F1F;}
	.st4{fill:#212121;}
</style>
<linearGradient id="SVGID_1_" gradientUnits="userSpaceOnUse" x1="590.3676" y1="961.4954" x2="1401.5764" y2="961.4954">
	<stop  offset="0" style="stop-color:#710086"/>
	<stop  offset="1" style="stop-color:#72005F"/>
</linearGradient>
<path class="st0" d="M1401.58,1111.6c0,36.45-4.81,71.78-13.82,105.39H604.19c-9.02-33.61-13.82-68.94-13.82-105.39
	c0-224.01,181.59-405.6,405.6-405.6S1401.58,887.59,1401.58,1111.6z"/>
<g>
	<g>
		<g>
			<g>
				<g>
					<g>
						<path class="st1" d="M1228.44,1126.66v-15.94c0.89-23.91-7.97-26.57-15.94-33.65s-61.11-28.34-61.11-28.34
							s-31.88-34.54-38.97-43.39c-7.08-8.86-27.45-19.48-27.45-19.48s0,0-25.68-9.74c-25.68-9.74-35.42-5.31-35.42-5.31l-257.3,45.1
							c11.2-1.57,252.13-35.38,258.19-36.25c4.87-0.7,9.56-0.18,13.14,3.37c6.2,6.09,11.69,12.98,17.53,19.42
							c7.63,8.4,15.23,16.83,22.88,25.22c3.69,4.07,7.39,8.14,11.1,12.21c93.87,14.17,125.76,43.39,125.76,43.39l-36.31-5.31
							c0,0,0,0-11.51-6.2c-11.51-6.2-31-5.31-31-5.31c-9.74,0-7.97,5.31-7.97,5.31c11.51,28.34,47.82,36.31,47.82,36.31
							c-5.31,1.77-24.8-5.31-24.8-5.31l-8.86,10.63l-33.65,2.66c-4.43-6.2-17.71-9.74-17.71-9.74
							c-14.17-3.54-26.57,10.63-26.57,10.63L879.52,1124c-3.54-9.74-10.63-11.51-10.63-11.51c-10.63-3.54-18.6,12.4-18.6,12.4
							l-97.42,5.31l71.73,2.66c0,0,0,10.63,0,16.83s15.94,12.4,15.94,12.4v10.63l8.86,3.54v7.97H714.79l160.29,11.51
							c14.17-1.77,18.6-27.45,18.6-27.45h10.63c3.54,7.97,7.97,7.97,7.97,7.97c10.63,3.54,19.48-5.31,19.48-5.31v3.54h8.86
							c0,0,1.77,18.6,18.6,18.6c16.83,0,18.6-15.94,18.6-15.94s54.02,0,60.22,0s7.08,10.63,7.08,10.63h12.4v-7.97
							c8.86,30.11,32.77,32.77,32.77,32.77c32.77,3.54,42.51-23.91,42.51-23.91s7.08,13.28,31,15.06
							c23.91,1.77,27.45-27.45,27.45-27.45h12.4c27.45-0.89,28.34-14.17,28.34-14.17v-10.63c0,0,0-1.77,0-13.28
							C1231.98,1126.66,1228.44,1126.66,1228.44,1126.66z M841.43,1159.43l-9.74-7.08v-11.51h13.28
							C844.98,1140.83,841.43,1147.91,841.43,1159.43z M864.02,1183.34c-5.14,0-9.3-8.53-9.3-19.04s4.16-19.04,9.3-19.04
							s9.3,8.53,9.3,19.04S869.15,1183.34,864.02,1183.34z M846.76,1140.81c0.16-0.61,5.5-20.37,17.7-21.24c0,0,7.97,0,10.63,9.74
							C875.09,1129.32,861.81,1115.16,846.76,1140.81z M1042.47,1163.85l-154.09-4.43c0,0-2.66-7.97-2.66-18.6h156.75V1163.85z
							 M1064.82,1168.85c0.28,2.82,0.76,5.61,1.39,8.37c0.52,2.28,1.08,7.61,2.67,9.49c-16.07-16.32-13.04-50.36,7.97-61.43
							c12.91-6.81,32.58-3.13,40.01,10.24c-0.47-0.85-2.61-1.66-3.42-2.11c-2.85-1.58-5.87-2.88-9.01-3.82
							c-8.7-2.6-18.04-1.95-25.49,3.6c-7.3,5.43-12.33,13.68-13.82,22.64C1064.4,1160.12,1064.38,1164.52,1064.82,1168.85z
							 M1096.04,1192.19c-12.47,0-22.58-11.5-22.58-25.68c0-14.19,10.11-25.68,22.58-25.68s22.58,11.49,22.58,25.68
							C1118.63,1180.7,1108.51,1192.19,1096.04,1192.19z M1220.44,1090.43c1.7-0.2,3.68,4.54,4.43,10.61
							c0.75,6.07-0.02,11.16-1.72,11.37c-1.7,0.2-3.68-4.54-4.43-10.61C1217.97,1095.73,1218.74,1090.64,1220.44,1090.43z
							 M1151.39,1091.24c-12.4-11.51-17.71-16.83-17.71-16.83s-3.54-4.43,1.77-4.43s17.71,0,27.45,4.43
							c9.74,4.43,9.74,4.43,9.74,4.43s9.74,2.66,14.17,27.45C1186.82,1106.29,1163.79,1102.75,1151.39,1091.24z M1187.7,1131.09
							c0,0-7.08,0-7.08,0c-1.6,0-2.52,2.94-2.95,4.09c-0.79,2.07-1.48,4.17-1.18,6.43c0.35,2.62,2.49,3.08,4.45,4.3
							c0.75,0.47,2.32,1.94,3.21,2.01c-0.01,0-34.54-2.66-34.54-2.66s5.31-17.71,14.17-17.71c8.86,0,23.91,0,23.91,0V1131.09z
							 M1186.82,1085.92c8.86,0,28.34,4.43,28.34,4.43v3.54l-25.68-4.43l0.89,4.43c0,0,9.74,3.54,20.37,7.08
							c10.63,3.54,4.43,3.54,4.43,3.54c-10.63,0.89-22.14-4.43-22.14-4.43v2.66c0,7.97,30.11,13.28,30.11,13.28v3.54
							c-10.63-1.77-23.03-7.08-28.34-9.74C1189.48,1107.18,1186.82,1085.92,1186.82,1085.92z M1229.33,1135.52h-7.08v9.74h-28.34
							l7.08-15.94c0,0,10.63-0.89,28.34,3.54V1135.52z"/>
					</g>
				</g>
				<g>
					<path class="st1" d="M827.27,1015.07l183.32-27.45c0,0,17.71-4.43,27.45,7.08l41.62,58.45l30.11,11.51l-104.5-20.37
						c0,0-9.74,0-9.74-15.06c0-15.06,0-26.57,0-26.57L827.27,1015.07z"/>
				</g>
			</g>
		</g>
		<g>
			<path class="st1" d="M801.58,1085.04c0,0,139.04-17.71,247.97,0C1049.55,1085.04,914.94,1093.89,801.58,1085.04z"/>
		</g>
	</g>
</g>
<g>
	<g>
		<g>
			<g>
				<path class="st1" d="M677.82,1105.08c-8.45-12.21-17.8-23.92-25-36.83c-3.84-6.88-5.33-15.8-5.5-23.85
					c-0.39-18.58,13.57-32.2,31.66-32.51c18.48-0.31,32.89,13.1,33.07,31.98c0.07,7.12-0.74,15.21-4.1,21.21
					c-7.8,13.93-17.4,26.85-26.27,40.18C680.39,1105.19,679.11,1105.13,677.82,1105.08z M678.87,1063.57
					c8.67,0.22,16.54-7.27,16.8-15.98c0.27-9.19-7.31-17.13-16.36-17.14c-8.73-0.01-16.43,7.62-16.48,16.32
					C662.78,1055.5,670.28,1063.35,678.87,1063.57z"/>
			</g>
		</g>
		<g>
			<g>
				<path class="st1" d="M1307.14,1105.29c-8.86-13.36-18.32-26.37-26.36-40.21c-5.57-9.6-5.92-20.64-2.35-31.35
					c5.08-15.21,19.57-23.77,35.86-21.5c15.13,2.11,26.23,14.47,27.42,30.06c0.76,9.85-0.73,19.27-6.1,27.47
					c-7.87,12.01-16.45,23.54-24.73,35.28C1309.64,1105.12,1308.39,1105.2,1307.14,1105.29z M1292.68,1046.66
					c-0.1,9.03,6.88,16.6,15.67,16.96c8.88,0.37,16.88-7.54,16.81-16.64c-0.07-9.04-7.26-16.42-16.13-16.54
					C1300.2,1030.32,1292.78,1037.67,1292.68,1046.66z"/>
			</g>
		</g>
		<g>
			<g>
				<path class="st1" d="M828.89,933.7L869,839.39c5.41-12.72,23.53-12.48,28.59,0.39l16.7,42.44l42.13-63.94
					c8.33-12.64,28-6.74,28,8.39v52.66c0,7.97-6.46,14.44-14.44,14.44h0c-7.97,0-14.44-6.46-14.44-14.44v-3.71l-27.53,45.88
					c-7.02,11.7-24.39,10.39-29.56-2.25l-15.51-37.86l-26.77,63.84c-3.03,7.24-11.19,10.85-18.59,8.24h0
					C829.53,950.62,825.54,941.57,828.89,933.7z"/>
			</g>
			<circle class="st1" cx="969.98" cy="920.58" r="15.26"/>
		</g>
		<g>
			<g>
				<path class="st1" d="M1094.97,820.75c0-3.87-3.14-7.01-7.01-7.01h-49.09c0,0-40.43,1.65-33,53.63
					c4.9,34.3,46.74,29.7,71.77,29.7c7.87,0,17.86,2.76,18.05,12.23c0.19,9.31-8.04,13.35-16.4,13.35h-33
					c-3.19,0-5.78,2.59-5.78,5.78s2.59,5.78,5.78,5.78h17.74c1.14,0,2.06,0.92,2.06,2.06s-0.92,2.06-2.06,2.06h-8.25
					c-3.87,0-7.01,3.14-7.01,7.01s3.14,7.01,7.01,7.01c16.64,0,34.24,2.7,49.76-4.9c21.71-10.64,28.38-41.15,16.92-61.76
					c-5.56-9.99-15.61-15.61-26.66-17.49h-47.85c0,0-14.03-2.48-10.73-16.5c0,0,1.65-8.25,16.5-7.43
					c10.76,0.6,30.19,0.33,40.07,0.14c3.41-0.07,6.13-2.85,6.13-6.26c0-3.46-2.8-6.26-6.26-6.26h-10.66c-1.14,0-2.06-0.92-2.06-2.06
					s0.92-2.06,2.06-2.06h4.95C1091.83,827.76,1094.97,824.62,1094.97,820.75z"/>
			</g>
			<path class="st1" d="M1111.77,826.94h-8.01c-3.03,0-5.48-2.45-5.48-5.48v-0.59c0-3.03,2.45-5.48,5.48-5.48h8.01
				c3.03,0,5.48,2.45,5.48,5.48v0.59C1117.25,824.48,1114.79,826.94,1111.77,826.94z"/>
			<path class="st1" d="M1030.91,934.19h-8.01c-3.03,0-5.48-2.45-5.48-5.48v-0.59c0-3.03,2.45-5.48,5.48-5.48h8.01
				c3.03,0,5.48,2.45,5.48,5.48v0.59C1036.4,931.74,1033.94,934.19,1030.91,934.19z"/>
		</g>
		<g>
			<polygon class="st1" points="994.64,724.11 1004.16,743.38 1025.43,746.48 1010.04,761.48 1013.67,782.67 994.64,772.67 
				975.62,782.67 979.25,761.48 963.86,746.48 985.13,743.38 			"/>
		</g>
		<g>
			<polygon class="st1" points="920.25,740.54 927.1,754.41 942.4,756.63 931.33,767.43 933.94,782.67 920.25,775.47 906.56,782.67 
				909.18,767.43 898.1,756.63 913.41,754.41 			"/>
		</g>
		<g>
			<polygon class="st1" points="1064.61,740.54 1071.45,754.41 1086.76,756.63 1075.68,767.43 1078.3,782.67 1064.61,775.47 
				1050.92,782.67 1053.53,767.43 1042.46,756.63 1057.76,754.41 			"/>
		</g>
	</g>
</g>
<g>
	<g>
		<g>
			<path class="st1" d="M688.86,960.09c-1.12-0.46-2.39,0.06-2.85,1.18c-2.23,5.4-4.35,10.92-6.3,16.42
				c-0.4,1.14,0.19,2.38,1.34,2.79c0.24,0.08,0.48,0.12,0.73,0.12c0.89,0,1.74-0.56,2.05-1.46c1.91-5.42,4-10.88,6.21-16.21
				C690.49,961.82,689.96,960.55,688.86,960.09z M1311.77,977.26c-1.94-5.48-4.06-10.98-6.29-16.35c-0.46-1.11-1.74-1.64-2.85-1.18
				c-1.11,0.46-1.64,1.74-1.18,2.85c2.21,5.3,4.29,10.72,6.21,16.14c0.32,0.89,1.16,1.45,2.05,1.45c0.24,0,0.49-0.04,0.73-0.13
				C1311.58,979.64,1312.18,978.39,1311.77,977.26z M704.1,928.67c-1.06-0.58-2.38-0.19-2.96,0.88c-2.79,5.13-5.47,10.4-7.99,15.66
				c-0.51,1.09-0.05,2.39,1.04,2.9c0.3,0.15,0.62,0.21,0.93,0.21c0.81,0,1.6-0.45,1.97-1.24c2.48-5.19,5.13-10.4,7.87-15.45
				C705.54,930.56,705.15,929.24,704.1,928.67z M1298.34,944.92c-2.51-5.25-5.19-10.49-7.97-15.6c-0.58-1.06-1.9-1.45-2.96-0.88
				c-1.06,0.58-1.45,1.9-0.88,2.96c2.75,5.05,5.39,10.23,7.87,15.4c0.37,0.79,1.15,1.24,1.97,1.24c0.32,0,0.64-0.06,0.94-0.21
				C1298.4,947.3,1298.86,946,1298.34,944.92z M722.53,899.03c-0.99-0.68-2.35-0.43-3.03,0.57c-3.31,4.81-6.54,9.77-9.58,14.73
				c-0.63,1.03-0.3,2.37,0.73,3c0.35,0.21,0.74,0.32,1.13,0.32c0.74,0,1.45-0.37,1.86-1.05c3-4.89,6.18-9.79,9.45-14.53
				C723.77,901.08,723.53,899.72,722.53,899.03z M1281.59,914.13c-3.05-4.96-6.27-9.9-9.56-14.69c-0.68-0.99-2.05-1.24-3.04-0.56
				s-1.24,2.04-0.56,3.03c3.26,4.73,6.44,9.61,9.44,14.51c0.42,0.67,1.13,1.04,1.86,1.04c0.39,0,0.79-0.11,1.14-0.33
				C1281.9,916.51,1282.22,915.16,1281.59,914.13z M743.96,871.51c-0.91-0.78-2.29-0.67-3.07,0.24c-3.79,4.44-7.51,9.02-11.05,13.65
				c-0.73,0.96-0.56,2.32,0.4,3.06c0.4,0.3,0.87,0.45,1.33,0.45c0.66,0,1.3-0.29,1.74-0.85c3.5-4.56,7.16-9.1,10.91-13.47
				C744.98,873.67,744.88,872.29,743.96,871.51z M1261.7,885.26c-3.54-4.61-7.26-9.2-11.05-13.63c-0.78-0.92-2.16-1.03-3.07-0.24
				c-0.91,0.78-1.02,2.16-0.24,3.07c3.74,4.37,7.4,8.9,10.91,13.45c0.43,0.56,1.07,0.85,1.73,0.85c0.47,0,0.93-0.15,1.33-0.45
				C1262.25,887.58,1262.43,886.21,1261.7,885.26z M768.13,846.37c-0.83-0.88-2.21-0.91-3.09-0.08c-4.22,4.01-8.4,8.19-12.41,12.42
				c-0.82,0.88-0.79,2.26,0.09,3.08c0.42,0.4,0.96,0.6,1.5,0.6c0.58,0,1.15-0.23,1.59-0.68c3.95-4.17,8.08-8.29,12.25-12.26
				C768.91,848.63,768.95,847.24,768.13,846.37z M1238.9,858.6c-4.01-4.22-8.19-8.4-12.42-12.41c-0.88-0.83-2.25-0.8-3.08,0.08
				c-0.82,0.88-0.79,2.25,0.08,3.08c4.17,3.96,8.29,8.08,12.26,12.25c0.43,0.45,1,0.68,1.58,0.68c0.54,0,1.08-0.19,1.51-0.6
				C1239.7,860.86,1239.73,859.47,1238.9,858.6z M794.75,823.88c-0.73-0.95-2.11-1.13-3.06-0.4c-4.62,3.55-9.2,7.27-13.63,11.05
				c-0.91,0.79-1.02,2.16-0.24,3.08c0.43,0.5,1.04,0.76,1.66,0.76c0.5,0,1.01-0.18,1.42-0.52c4.37-3.74,8.89-7.41,13.45-10.91
				C795.31,826.21,795.49,824.84,794.75,823.88z M1213.44,834.44c-4.43-3.79-9.02-7.51-13.64-11.05c-0.96-0.74-2.32-0.56-3.06,0.4
				c-0.73,0.96-0.56,2.32,0.4,3.06c4.56,3.51,9.09,7.17,13.46,10.91c0.42,0.35,0.92,0.53,1.42,0.53c0.62,0,1.23-0.27,1.67-0.77
				C1214.47,836.6,1214.36,835.22,1213.44,834.44z M823.57,804.31c-0.64-1.03-1.97-1.35-3-0.72c-4.96,3.05-9.9,6.26-14.69,9.56
				c-0.99,0.68-1.25,2.05-0.56,3.04c0.42,0.61,1.1,0.94,1.8,0.94c0.43,0,0.85-0.12,1.23-0.38c4.74-3.26,9.61-6.44,14.51-9.45
				C823.88,806.67,824.2,805.33,823.57,804.31z M1185.6,813.05c-4.8-3.3-9.76-6.53-14.73-9.57c-1.03-0.64-2.36-0.31-2.99,0.72
				c-0.64,1.03-0.31,2.36,0.72,2.99c4.9,3.01,9.79,6.19,14.53,9.46c0.38,0.26,0.81,0.38,1.23,0.38c0.7,0,1.38-0.33,1.81-0.94
				C1186.85,815.1,1186.59,813.73,1185.6,813.05z M854.25,787.86c-0.51-1.09-1.82-1.55-2.9-1.03c-5.24,2.52-10.49,5.2-15.6,7.98
				c-1.06,0.58-1.45,1.9-0.88,2.96c0.4,0.73,1.15,1.13,1.92,1.13c0.35,0,0.71-0.08,1.04-0.27c5.04-2.75,10.22-5.39,15.4-7.86
				C854.31,790.25,854.77,788.95,854.25,787.86z M1155.66,794.68c-5.13-2.78-10.4-5.47-15.67-7.98c-1.08-0.52-2.38-0.06-2.9,1.03
				c-0.51,1.09-0.05,2.39,1.03,2.9c5.2,2.48,10.4,5.14,15.45,7.88c0.34,0.18,0.69,0.27,1.05,0.27c0.77,0,1.52-0.41,1.91-1.14
				C1157.11,796.58,1156.72,795.25,1155.66,794.68z M886.47,774.72c-0.4-1.13-1.65-1.73-2.78-1.33c-5.47,1.95-10.97,4.06-16.35,6.3
				c-1.11,0.46-1.64,1.74-1.18,2.84c0.35,0.84,1.16,1.35,2.02,1.35c0.27,0,0.56-0.05,0.83-0.17c5.3-2.2,10.73-4.29,16.14-6.2
				C886.28,777.1,886.88,775.86,886.47,774.72z M1123.94,779.54c-5.39-2.23-10.92-4.35-16.42-6.3c-1.14-0.4-2.38,0.19-2.79,1.33
				c-0.4,1.14,0.19,2.38,1.33,2.79c5.44,1.91,10.88,4.01,16.21,6.21c0.27,0.12,0.56,0.17,0.84,0.17c0.85,0,1.66-0.5,2.01-1.35
				C1125.58,781.28,1125.06,780,1123.94,779.54z"/>
		</g>
	</g>
</g>
<g>
	<path class="st2" d="M703.55,1245.98v4.57c-9.14,0-9.14,10.97-9.14,10.97v52.08h-11.88v-52.08l-23.76,59.39h-4.57l-25.59-59.39v53
		h-6.4c0,0,0-47.52,0-55.74s-10.97-6.4-10.97-6.4v-6.4c0,0,1.83,0,13.71,0s13.71,10.05,13.71,10.05l21.02,45.69l21.93-55.74H703.55z
		"/>
	<path class="st3" d="M710.86,1245.98h33.81v5.48c0,0-10.05-2.74-10.05,7.31c0,10.04,0,41.94,0,42.03c0,18.91,36.55,18.5,36.55,0
		c0-13.71,0-43.86,0-43.86s2.74-6.4-10.97-5.48v-5.48h30.15v5.48c0,0-11.88-1.83-11.88,7.31s0,42.95,0,42.95s0.91,19.19-25.59,21.02
		c-7.1,0.49-14.63-1.33-20.7-5.06c-7.61-4.68-9.46-10.54-9.46-19.17c0-6.3,0-12.6,0-18.9c0-7.55,0-15.11,0-22.66
		c0,0,1.83-5.48-11.88-5.48V1245.98z"/>
	<path class="st3" d="M830.57,1264.25c1.09-1.64,3.78-2.01,4.87-4.15c2.43-4.78-1.48-8.47-5.69-10.14
		c-5.73-2.27-14.15-0.43-18.01,4.51c-6.93,8.86,4.94,17.95,12.11,21.13c8.47,3.75,19.2,5.87,24.53,14.24
		c4.2,6.59,2.75,14.37-1.02,20.77c-3.76,6.37-9.74,10.02-16.91,11.63c-8.81,1.98-21.37,1.17-28.55-4.98
		c-2.92-2.51-4.85-6.15-5.23-9.99c-0.3-3.15,0.46-6.44,2.38-8.95s5.04-4.15,8.2-4c2.59,0.12,5.09,1.44,6.65,3.5
		c0.23,0.31,0.46,0.66,0.47,1.05c0.03,1.09-1.38,1.48-2.41,1.86c-3.15,1.15-4.55,5.25-3.41,8.41c3.5,9.68,19.87,9.06,26.08,2.64
		c3.29-3.4,4.22-9.22,2.5-13.59c-1.53-3.89-5.53-6.06-9.24-7.45c-8.71-3.26-18.39-5.84-24.53-13.33
		c-5.02-6.13-7.15-15.44-3.23-22.65c4.66-8.56,14.45-12.07,23.75-12.03c7.68,0.03,18.02,2.82,22.12,9.96
		c5.49,9.58-4.59,19.85-14.52,16.12C831.48,1268.82,828.74,1266.99,830.57,1264.25z"/>
	<path class="st3" d="M1136.68,1264.25c1.09-1.64,3.78-2.01,4.87-4.15c2.43-4.78-1.48-8.47-5.69-10.14
		c-5.73-2.27-14.15-0.43-18.01,4.51c-6.93,8.86,4.94,17.95,12.11,21.13c8.47,3.75,19.2,5.87,24.53,14.24
		c4.2,6.59,2.75,14.37-1.02,20.77c-3.76,6.37-9.74,10.02-16.91,11.63c-8.81,1.98-21.37,1.17-28.55-4.98
		c-2.92-2.51-4.85-6.15-5.23-9.99c-0.3-3.15,0.46-6.44,2.38-8.95c1.92-2.51,5.04-4.15,8.2-4c2.59,0.12,5.09,1.44,6.65,3.5
		c0.23,0.31,0.46,0.66,0.47,1.05c0.03,1.09-1.38,1.48-2.41,1.86c-3.15,1.15-4.55,5.25-3.41,8.41c3.5,9.68,19.87,9.06,26.08,2.64
		c3.29-3.4,4.22-9.22,2.5-13.59c-1.53-3.89-5.53-6.06-9.24-7.45c-8.71-3.26-18.39-5.84-24.53-13.33
		c-5.02-6.13-7.15-15.44-3.23-22.65c4.66-8.56,14.45-12.07,23.75-12.03c7.68,0.03,18.02,2.82,22.12,9.96
		c5.49,9.58-4.59,19.85-14.52,16.12C1137.59,1268.82,1134.85,1266.99,1136.68,1264.25z"/>
	<path class="st3" d="M903.77,1269.8c0.11-0.16,0.23-0.31,0.36-0.45c1.89-2,4.19-2.18,5.46-4.93c0.94-2.03,1-4.29,0.35-6.41
		c-1.28-4.17-5.15-7.59-9.42-8.4c-7.32-1.39-15.4,2.31-19.71,8.24c-11.37,15.63-10.28,44.39,8.47,54.24
		c8.53,4.48,17.78,3.63,24.72-3.31c1.84-1.84,7.78-8.37,9.76-3.41c1.79,4.49-5.05,9.91-8.05,12.18
		c-16.99,12.87-45.72,3.71-53.17-15.84c-6.5-17.08-2.8-38.07,10.85-50.49c7.59-6.91,15.92-10.1,26.17-9.81
		c7.2,0.2,15.29,2.89,20.47,8.18c10.43,10.65,0.71,25.75-12.93,24.87c-1.44-0.09-3.1-0.49-3.72-1.79
		C902.94,1271.76,903.19,1270.66,903.77,1269.8z"/>
	<path class="st3" d="M1297.5,1313.59l-1.31-3.21l-0.26-0.62l-0.07-0.18c-5.08-12.49-20.29-49.88-20.29-49.9
		c-1.79-4.4-4.63-9.27-8.21-12.43c-3.6-3.18-9.66-2.66-14.8-2.34c-1.96,0.13-3.49,1.75-3.49,3.73c0,1.02,0.42,1.96,1.1,2.63
		c0.68,0.68,1.61,1.1,2.63,1.1h2.67c0,0,4.57,0.91,2.74,5.48c-1.5,3.75-15.9,38.83-21.04,51.34l-0.28,0.69
		c-0.14,0.33-0.26,0.65-0.38,0.94l-0.24,0.58c-0.07,0.16-0.14,0.32-0.19,0.47l-0.7,1.71l0.11,0.04h9.11l0.01-0.04h-0.09l1.7-4.37
		l0.01-0.03l4.69-12.05h24.67l8.22,16.45l0.02,0.04h13.71L1297.5,1313.59z M1253.64,1290.75l10.05-27.41l10.97,27.41H1253.64z"/>
	<path class="st3" d="M1383.5,1315.31c-0.49-0.49-1.18-0.8-1.94-0.8h-2.74c-16.45-10.97-22.84-29.24-22.84-29.24
		c16.45-3.66,18.28-14.62,18.28-14.62c6.4-22.84-21.02-24.67-21.02-24.67h-42.03v6.4c10.05,0,9.14,5.48,9.14,5.48v56.65h12.79
		v-27.41h9.14c12.79,25.59,25.59,32.9,25.59,32.9h13.71c1.52,0,2.74-1.22,2.74-2.74C1384.31,1316.49,1384,1315.81,1383.5,1315.31z
		 M1332.22,1282.53v-31.98h13.75c8.85,0,16.33,7.01,16.4,15.86c0.04,4.46-1.76,8.51-4.69,11.43c-2.9,2.9-6.89,4.69-11.3,4.69
		H1332.22z"/>
	<path class="st3" d="M1342.27,1319.08c0,0-31.96,0-31.97-0.01c-0.31-0.28,2.47-2.64,2.64-2.76c1.18-0.85,2.49-1.51,3.85-2.02
		c1.95-0.74,3.96-0.7,6-0.69c2.34,0.01,4.67,0,7.01,0c2.03,0,3.77-0.11,5.71,0.59c1.43,0.52,2.81,1.19,4.05,2.08
		c0.75,0.54,1.46,1.16,2.06,1.88C1341.85,1318.41,1342.02,1318.82,1342.27,1319.08z"/>
	<path class="st3" d="M1306.64,1319.08c0,0-31.96,0-31.97-0.01c-0.31-0.28,2.47-2.64,2.64-2.76c1.18-0.85,2.49-1.51,3.85-2.02
		c1.95-0.74,3.96-0.7,6-0.69c2.34,0.01,4.67,0,7.01,0c2.03,0,3.77-0.11,5.71,0.59c1.43,0.52,2.81,1.19,4.05,2.08
		c0.75,0.54,1.46,1.16,2.06,1.88C1306.21,1318.41,1306.38,1318.82,1306.64,1319.08z"/>
	<path class="st3" d="M1255.47,1319.08c0,0-31.96,0-31.97-0.01c-0.31-0.28,2.47-2.64,2.64-2.76c1.18-0.85,2.49-1.51,3.85-2.02
		c1.95-0.74,3.95-0.7,6-0.69c2.34,0.01,4.67,0,7.01,0c2.03,0,3.77-0.11,5.71,0.59c1.43,0.52,2.81,1.19,4.05,2.08
		c0.75,0.54,1.47,1.16,2.06,1.88C1255.04,1318.41,1255.21,1318.82,1255.47,1319.08z"/>
	<path class="st3" d="M997.79,1313.59l-1.31-3.21l-0.26-0.62l-0.07-0.18c-5.08-12.49-20.29-49.88-20.29-49.9
		c-1.79-4.4-4.63-9.27-8.21-12.43c-3.6-3.18-9.66-2.66-14.8-2.34c-1.96,0.13-3.49,1.75-3.49,3.73c0,1.02,0.42,1.96,1.1,2.63
		c0.68,0.68,1.61,1.1,2.63,1.1h2.67c0,0,4.57,0.91,2.74,5.48c-1.5,3.75-15.9,38.83-21.04,51.34l-0.28,0.69
		c-0.14,0.33-0.26,0.65-0.38,0.94l-0.24,0.58c-0.07,0.16-0.14,0.32-0.19,0.47l-0.7,1.71l0.11,0.04h9.11l0.01-0.04h-0.09l1.7-4.37
		l0.01-0.03l4.69-12.05h24.67l8.22,16.45l0.02,0.04h13.71L997.79,1313.59z M953.93,1290.75l10.05-27.41l10.97,27.41H953.93z"/>
	<path class="st3" d="M1006.92,1319.08c0,0-31.96,0-31.97-0.01c-0.31-0.28,2.47-2.64,2.64-2.76c1.18-0.85,2.49-1.51,3.85-2.02
		c1.95-0.74,3.96-0.7,6-0.69c2.34,0.01,4.67,0,7.01,0c2.03,0,3.77-0.11,5.71,0.59c1.43,0.52,2.81,1.19,4.05,2.08
		c0.75,0.54,1.47,1.16,2.06,1.88C1006.5,1318.41,1006.67,1318.82,1006.92,1319.08z"/>
	<path class="st3" d="M955.75,1319.08c0,0-31.96,0-31.97-0.01c-0.31-0.28,2.47-2.64,2.64-2.76c1.18-0.85,2.49-1.51,3.85-2.02
		c1.95-0.74,3.96-0.7,6-0.69c2.34,0.01,4.67,0,7.01,0c2.03,0,3.77-0.11,5.71,0.59c1.43,0.52,2.81,1.19,4.05,2.08
		c0.75,0.54,1.47,1.16,2.06,1.88C955.33,1318.41,955.5,1318.82,955.75,1319.08z"/>
	<path class="st3" d="M703.55,1319.08c0,0-31.96,0-31.97-0.01c-0.31-0.28,2.47-2.64,2.64-2.76c1.18-0.85,2.49-1.51,3.85-2.02
		c1.95-0.74,3.96-0.7,6-0.69c2.34,0.01,4.67,0,7.01,0c2.03,0,3.77-0.11,5.71,0.59c1.43,0.52,2.81,1.19,4.05,2.08
		c0.75,0.54,1.47,1.16,2.06,1.88C703.13,1318.41,703.3,1318.82,703.55,1319.08z"/>
	<path class="st3" d="M640.5,1319.08c0,0-31.96,0-31.97-0.01c-0.31-0.28,2.47-2.64,2.64-2.76c1.18-0.85,2.49-1.51,3.85-2.02
		c1.95-0.74,3.96-0.7,6-0.69c2.34,0.01,4.67,0,7.01,0c2.03,0,3.77-0.11,5.71,0.59c1.43,0.52,2.81,1.19,4.05,2.08
		c0.75,0.54,1.47,1.16,2.06,1.88C640.08,1318.41,640.25,1318.82,640.5,1319.08z"/>
	<g>
		<path class="st3" d="M1228.05,1245.98v19.55c0,1.82-1.47,3.29-3.29,3.29c-0.84,0-1.63-0.32-2.21-0.85
			c-0.58-0.53-0.99-1.27-1.06-2.11c-0.49-5.17-2.4-15.31-9.89-15.31c-10.05,0-10.05,0-10.05,0v63.96h-11.88v-63.05h-8.22
			c0,0-7.79-0.78-8.98,13.5c-0.18,2.17-1.99,3.87-4.18,3.87c-1.16,0-2.2-0.48-2.96-1.23c-0.76-0.76-1.23-1.8-1.23-2.96v-18.65
			H1228.05z"/>
		<path class="st3" d="M1211.61,1319.08c0,0-31.96,0-31.97-0.01c-0.31-0.28,2.47-2.64,2.64-2.76c1.18-0.85,2.49-1.51,3.85-2.02
			c1.95-0.74,3.95-0.7,6-0.69c2.34,0.01,4.67,0,7.01,0c2.03,0,3.77-0.11,5.71,0.59c1.43,0.52,2.81,1.19,4.05,2.08
			c0.75,0.54,1.47,1.16,2.06,1.88C1211.18,1318.41,1211.35,1318.82,1211.61,1319.08z"/>
	</g>
	<g>
		<path class="st3" d="M1069.06,1245.98v19.55c0,1.82-1.47,3.29-3.29,3.29c-0.84,0-1.63-0.32-2.21-0.85
			c-0.58-0.53-0.99-1.27-1.06-2.11c-0.49-5.17-2.4-15.31-9.89-15.31c-10.05,0-10.05,0-10.05,0v63.96h-11.88v-63.05h-8.22
			c0,0-7.79-0.78-8.98,13.5c-0.18,2.17-1.99,3.87-4.18,3.87c-1.16,0-2.2-0.48-2.96-1.23c-0.76-0.76-1.23-1.8-1.23-2.96v-18.65
			H1069.06z"/>
		<path class="st3" d="M1052.61,1319.08c0,0-31.96,0-31.97-0.01c-0.31-0.28,2.47-2.64,2.64-2.76c1.18-0.85,2.49-1.51,3.85-2.02
			c1.95-0.74,3.96-0.7,6-0.69c2.34,0.01,4.67,0,7.01,0c2.03,0,3.77-0.11,5.71,0.59c1.43,0.52,2.81,1.19,4.05,2.08
			c0.75,0.54,1.46,1.16,2.06,1.88C1052.19,1318.41,1052.36,1318.82,1052.61,1319.08z"/>
	</g>
</g>
<g>
	<path class="st4" d="M627.65,1349.08h-11.24c-0.06,0-5.81,0.05-8.36,3.44c-0.04,0.04-0.07,0.11-0.02,0.21
		c0.03,0.06,0.09,0.11,0.15,0.11c0.02,0,0.06-0.01,0.09-0.03c1.88-1.15,3.85-1.76,5.68-1.76c0.91,0,1.8,0.14,2.65,0.43l0.4,0.14
		v24.68h10.65c3.63,0,7.05-1.41,9.62-3.99c2.57-2.57,3.99-5.99,3.99-9.62C641.26,1355.18,635.15,1349.08,627.65,1349.08z
		 M635.6,1370.63c-2.13,2.12-4.95,3.29-7.95,3.29h-8.28v-22.48h8.28c6.2,0,11.24,5.04,11.24,11.24
		C638.89,1365.68,637.72,1368.5,635.6,1370.63z"/>
	<path class="st4" d="M627.65,1349.08h-11.24c-0.06,0-5.81,0.05-8.36,3.44c-0.04,0.04-0.07,0.11-0.02,0.21
		c0.03,0.06,0.09,0.11,0.15,0.11c0.02,0,0.06-0.01,0.09-0.03c1.88-1.15,3.85-1.76,5.68-1.76c0.91,0,1.8,0.14,2.65,0.43l0.4,0.14
		v24.68h10.65c3.63,0,7.05-1.41,9.62-3.99c2.57-2.57,3.99-5.99,3.99-9.62C641.26,1355.18,635.15,1349.08,627.65,1349.08z
		 M635.6,1370.63c-2.13,2.12-4.95,3.29-7.95,3.29h-8.28v-22.48h8.28c6.2,0,11.24,5.04,11.24,11.24
		C638.89,1365.68,637.72,1368.5,635.6,1370.63z"/>
	<polygon class="st4" points="669.65,1349.67 682.66,1349.67 682.66,1353.22 680.89,1353.22 680.89,1352.03 675.57,1352.03 
		675.57,1373.33 686.81,1373.33 686.81,1371.56 689.17,1371.56 689.17,1375.7 669.65,1375.7 669.65,1373.92 673.2,1373.92 
		673.2,1352.03 669.65,1352.03 	"/>
	<polygon class="st4" points="675.57,1361.71 682.66,1361.71 682.66,1360.32 684.44,1360.32 684.44,1365.05 682.66,1365.05 
		682.66,1363.27 675.57,1363.27 	"/>
	<polygon class="st4" points="850.07,1349.67 863.09,1349.67 863.09,1353.22 861.31,1353.22 861.31,1352.03 855.99,1352.03 
		855.99,1373.33 867.23,1373.33 867.23,1371.56 869.59,1371.56 869.59,1375.7 850.07,1375.7 850.07,1373.92 853.62,1373.92 
		853.62,1352.03 850.07,1352.03 	"/>
	<polygon class="st4" points="855.99,1361.71 863.09,1361.71 863.09,1360.32 864.86,1360.32 864.86,1365.05 863.09,1365.05 
		863.09,1363.27 855.99,1363.27 	"/>
	<polygon class="st4" points="1074.86,1349.67 1087.87,1349.67 1087.87,1353.22 1086.1,1353.22 1086.1,1352.03 1080.78,1352.03 
		1080.78,1373.33 1092.02,1373.33 1092.02,1371.56 1094.38,1371.56 1094.38,1375.7 1074.86,1375.7 1074.86,1373.92 1078.41,1373.92 
		1078.41,1352.03 1074.86,1352.03 	"/>
	<polygon class="st4" points="1080.78,1361.71 1087.87,1361.71 1087.87,1360.32 1089.65,1360.32 1089.65,1365.05 1087.87,1365.05 
		1087.87,1363.27 1080.78,1363.27 	"/>
	<polygon class="st4" points="1320.35,1349.67 1333.37,1349.67 1333.37,1353.22 1331.59,1353.22 1331.59,1352.03 1326.27,1352.03 
		1326.27,1373.33 1337.51,1373.33 1337.51,1371.56 1339.87,1371.56 1339.87,1375.7 1320.35,1375.7 1320.35,1373.92 1323.9,1373.92 
		1323.9,1352.03 1320.35,1352.03 	"/>
	<polygon class="st4" points="1326.27,1361.71 1333.37,1361.71 1333.37,1360.32 1335.14,1360.32 1335.14,1365.05 1333.37,1365.05 
		1333.37,1363.27 1326.27,1363.27 	"/>
	<rect x="717.57" y="1349.67" class="st4" width="8.28" height="2.37"/>
	<path class="st4" d="M748.91,1380.83c-2.07,3.19-5.92,3.91-8.93,3.91c-1.93,0-3.86-0.23-5.71-0.79c-1.89-0.57-3.62-1.53-5.41-2.33
		c-2.4-1.08-4.8-2.18-7.17-3.32c-0.39-0.19-1.22-0.82-1.67-0.82h-0.08v-25.44h2.96c0,0,0,23.57,0,23.57
		c3.47,1.35,6.93,2.75,10.43,4.02c3.23,1.18,6.7,1.82,10.14,1.82C745.88,1381.45,747.74,1381.12,748.91,1380.83z"/>
	<polygon class="st4" points="760.16,1376.29 769.03,1376.29 769.03,1374.39 765.48,1374.39 765.48,1349.08 763.11,1349.08 
		763.11,1374.39 760.16,1374.39 	"/>
	<path class="st4" d="M765.48,1349.08h-7.31c-2.5,0-4.52,2.03-4.52,4.52v1.39c0,0.65,0.53,1.18,1.18,1.18l0,0
		c0.65,0,1.18-0.53,1.18-1.18v-1.18c0-1.31,1.06-2.37,2.37-2.37h4.73L765.48,1349.08z"/>
	<polygon class="st4" points="1227.48,1376.29 1236.35,1376.29 1236.35,1374.39 1232.8,1374.39 1232.8,1349.08 1230.44,1349.08 
		1230.44,1374.39 1227.48,1374.39 	"/>
	<path class="st4" d="M1232.8,1349.08h-7.31c-2.5,0-4.52,2.03-4.52,4.52v1.39c0,0.65,0.53,1.18,1.18,1.18l0,0
		c0.65,0,1.18-0.53,1.18-1.18v-1.18c0-1.31,1.06-2.37,2.37-2.37h4.73L1232.8,1349.08z"/>
	<path class="st4" d="M799.2,1349.67c1.11,1.97,2.18,3.97,3.21,5.98c1.05,2,2.03,4.03,3.04,6.05l2.91,6.11
		c0.95,2.04,1.88,4.09,2.8,6.15l-2.65,0.1c1.13-3.33,2.4-6.55,3.8-9.74c1.4-3.18,2.94-6.32,4.68-9.35c0.86-1.52,1.8-3,2.78-4.45
		c0.98-1.45,2.04-2.86,3.21-4.19c1.16-1.33,2.44-2.57,3.88-3.62c1.44-1.02,3.13-1.86,4.88-1.89c-1.69,0.43-3.07,1.46-4.26,2.63
		c-1.21,1.17-2.22,2.53-3.19,3.9c-1.9,2.8-3.53,5.78-5.04,8.84c-1.51,3.05-2.92,6.16-4.25,9.31c-1.33,3.14-2.62,6.33-3.8,9.5
		l-1.28,3.44l-1.37-3.35c-0.85-2.08-1.7-4.17-2.52-6.27l-2.42-6.32c-0.77-2.12-1.56-4.23-2.29-6.37
		C800.57,1353.98,799.86,1351.84,799.2,1349.67z"/>
	<path class="st4" d="M1172.47,1349.67c1.11,1.97,2.18,3.97,3.21,5.98c1.05,2,2.03,4.03,3.04,6.05l2.91,6.11
		c0.95,2.04,1.88,4.09,2.8,6.15l-2.65,0.1c1.13-3.33,2.4-6.55,3.8-9.74c1.4-3.18,2.94-6.32,4.68-9.35c0.86-1.52,1.8-3,2.78-4.45
		c0.98-1.45,2.04-2.86,3.21-4.19c1.16-1.33,2.44-2.57,3.88-3.62c1.44-1.02,3.13-1.86,4.88-1.89c-1.69,0.43-3.07,1.46-4.26,2.63
		c-1.21,1.17-2.22,2.53-3.19,3.9c-1.9,2.8-3.53,5.78-5.04,8.84c-1.51,3.05-2.92,6.16-4.25,9.31c-1.33,3.14-2.62,6.33-3.8,9.5
		l-1.28,3.44l-1.37-3.35c-0.85-2.08-1.7-4.17-2.52-6.27l-2.42-6.32c-0.77-2.12-1.56-4.23-2.29-6.37
		C1173.83,1353.98,1173.13,1351.84,1172.47,1349.67z"/>
	<rect x="899.17" y="1373.33" class="st4" width="6.51" height="1.77"/>
	<rect x="951.82" y="1373.33" class="st4" width="6.51" height="1.77"/>
	<g>
		<path class="st4" d="M910.43,1364.36c3.67-0.58,6.48-3.76,6.48-7.6c0-4.24-3.45-7.69-7.69-7.69h-10.65v1.77h2.37v22.48h2.37v-8.87
			h3.66c0,0,13.5,17.75,21.19,17.75C928.16,1382.2,913.42,1371.37,910.43,1364.36z M903.31,1362.68v-11.83h5.92
			c3.26,0,5.92,2.66,5.92,5.92s-2.66,5.92-5.92,5.92H903.31z"/>
	</g>
	<rect x="1123.96" y="1373.33" class="st4" width="6.51" height="1.77"/>
	<g>
		<path class="st4" d="M1135.22,1364.36c3.67-0.58,6.48-3.76,6.48-7.6c0-4.24-3.45-7.69-7.69-7.69h-10.65v1.77h2.37v22.48h2.37
			v-8.87h3.66c0,0,13.5,17.75,21.19,17.75C1152.95,1382.2,1138.21,1371.37,1135.22,1364.36z M1128.1,1362.68v-11.83h5.92
			c3.26,0,5.92,2.66,5.92,5.92s-2.66,5.92-5.92,5.92H1128.1z"/>
	</g>
	<rect x="953.59" y="1358.54" class="st4" width="2.37" height="15.38"/>
	<path class="st4" d="M955.96,1358.54c0,0-1.77-9.46-13.01-13.01c0,0,7.69,5.92,10.65,13.01H955.96z"/>
	<path class="st4" d="M953.59,1359.13c0,0,1.77-9.46,13.01-13.01c0,0-7.69,5.92-10.65,13.01H953.59z"/>
	<g>
		<path class="st4" d="M1036.4,1379.43c-2.17,0-4.2-0.7-5.66-1.99c-3.36-2.96-2.76-8.22-1.07-12.15c0.19-0.45,0.72-0.66,1.17-0.47
			c0.45,0.19,0.66,0.71,0.47,1.17c-1.44,3.36-2.04,7.78,0.61,10.12c1.31,1.15,3.22,1.7,5.27,1.51c2.19-0.21,4.2-1.22,5.36-2.72
			c2.69-3.46,1.5-6.92-3.86-11.23l-0.11-0.09c-3.14-2.53-7.45-5.99-5.98-11.03c0.44-1.5,1.4-2.7,2.72-3.38
			c1.26-0.65,2.73-0.73,4.12-0.23c1.42,0.51,2.78,1.52,4.14,3.11c0.32,0.37,0.28,0.93-0.09,1.25c-0.37,0.32-0.93,0.28-1.25-0.09
			c-1.16-1.35-2.27-2.2-3.39-2.6c-0.93-0.33-1.9-0.28-2.72,0.14c-0.87,0.45-1.52,1.26-1.82,2.29c-1.14,3.9,2.48,6.81,5.39,9.15
			l0.11,0.09c2.25,1.81,9.11,7.33,4.15,13.71c-1.46,1.88-3.93,3.15-6.6,3.4C1037.04,1379.42,1036.72,1379.43,1036.4,1379.43z"/>
	</g>
	<g>
		<path class="st4" d="M1376.55,1379.43c-2.17,0-4.2-0.7-5.66-1.99c-3.36-2.96-2.76-8.22-1.07-12.15c0.19-0.45,0.72-0.66,1.17-0.47
			c0.45,0.19,0.66,0.71,0.47,1.17c-1.44,3.36-2.04,7.78,0.61,10.12c1.31,1.15,3.22,1.7,5.27,1.51c2.19-0.21,4.2-1.22,5.36-2.72
			c2.69-3.46,1.5-6.92-3.86-11.23l-0.11-0.09c-3.14-2.53-7.45-5.99-5.98-11.03c0.44-1.5,1.4-2.7,2.72-3.38
			c1.26-0.65,2.73-0.73,4.12-0.23c1.42,0.51,2.78,1.52,4.14,3.11c0.32,0.37,0.28,0.93-0.09,1.25c-0.37,0.32-0.93,0.28-1.25-0.09
			c-1.16-1.35-2.27-2.2-3.39-2.6c-0.93-0.33-1.9-0.28-2.72,0.14c-0.87,0.45-1.52,1.26-1.82,2.29c-1.14,3.9,2.48,6.81,5.39,9.15
			l0.11,0.09c2.25,1.81,9.11,7.33,4.15,13.71c-1.46,1.88-3.93,3.15-6.6,3.4C1377.18,1379.42,1376.86,1379.43,1376.55,1379.43z"/>
	</g>
	<path class="st4" d="M1293.28,1362.09h-1.92c0.01,0.15,0.01,0.3,0.01,0.44c0,6.73-5.47,12.2-12.2,12.2c-6.73,0-12.2-5.47-12.2-12.2
		s5.47-12.2,12.2-12.2c3.38,0,6.58,1.39,8.88,3.84l1.29-1.53c-2.7-2.84-6.46-4.45-10.39-4.45c-7.91,0-14.35,6.44-14.35,14.35
		c0,7.91,6.44,14.35,14.35,14.35s14.35-6.44,14.35-14.35C1293.29,1362.38,1293.29,1362.23,1293.28,1362.09z"/>
	<path class="st4" d="M1293.29,1362.53c0,7.91-6.44,14.35-14.35,14.35s-14.35-6.44-14.35-14.35c0-7.91,6.44-14.35,14.35-14.35
		c3.93,0,7.69,1.61,10.39,4.45l-1.29,1.53c-2.3-2.45-5.5-3.84-8.88-3.84c-6.73,0-12.2,5.47-12.2,12.2s5.47,12.2,12.2,12.2
		c6.73,0,12.2-5.47,12.2-12.2c0-0.15,0-0.29-0.01-0.44h1.92C1293.29,1362.23,1293.29,1362.38,1293.29,1362.53z"/>
</g>
</svg>
